<svg id="Warstwa_1" data-name="Warstwa 1" xmlns="http://www.w3.org/2000/svg" viewBox="0 0 609.2 159.91"><path d="M467.12,133.84c-.11-1.91,1-3.59,1.82-5.3,10-20.18,21.42-39.59,32.55-59.15q6-10.59,12.16-21.12A30.1,30.1,0,0,1,515.76,45c2.92-3.81,7.16-3.9,9.92,0,4,5.74,7.2,12,10.69,18.11C548.11,83.62,560,104,570.84,125a45.2,45.2,0,0,1,3.45,7.83,4.58,4.58,0,0,1-1.11,4.85c-1.37,1.33-3.17,1.23-4.95.55a13.38,13.38,0,0,1-4-2.86c-7.41-6.65-15.47-12.23-25-15.56-14.4-5-28.44-4.08-42.25,2.12a72.85,72.85,0,0,0-19.18,13,15.27,15.27,0,0,1-4.7,3.34C469.55,139.6,467,137.77,467.12,133.84Z" style="fill:#1a8720"/><path d="M574.59,154.38c-7.21-.38-14.58-.68-21.71-2.83-1.69-.51-4.32-.83-4.17-2.73.08-1.13,3-.95,4.74-1,8.38-.45,16.73-1.13,24.75-3.87a30.5,30.5,0,0,0,6.26-2.92c3.67-2.26,4.7-4.31,3.83-8.55-2-9.62-5.54-18.74-9.62-27.61C567.42,80.37,552.51,58.2,536.05,37a112.65,112.65,0,0,0-9.55-11.14c-4.42-4.37-7.77-4.32-12,.2-11.38,12.07-20.81,25.64-29.9,39.44-10.68,16.2-20.35,33-27,51.28A113,113,0,0,0,453,131c-1.27,5.78-.37,7.67,4.82,10.64s11.2,4.2,17.15,4.94c5.12.64,10.28.89,15.42,1.37.77.07,1.92-.09,2.12.85.26,1.16-1,1.49-1.74,1.82a46.31,46.31,0,0,1-12.34,2.84c-11.09,1.35-22.07,1.26-32.8-2.38a16.92,16.92,0,0,1-3-1.26c-6.7-3.82-7.13-5.49-5.5-11.68,2.43-9.16,6.44-17.67,10.63-26.08,14.94-30,31.86-58.92,51.76-86,4.43-6,9-12,14.76-16.85,5.29-4.52,7.71-4.49,12.87.22,6.59,6,11.94,13.08,17.13,20.25,17.12,23.67,31.88,48.78,45.33,74.68A216.88,216.88,0,0,1,603.11,135c.32,1,.62,1.93.86,2.91,1.67,6.69.72,8.81-5.51,11.93C591,153.57,582.88,154,574.59,154.38Z" style="fill:#1c8922"/><path d="M95.33,143.41h-.16a5.28,5.28,0,0,1-4.94-3.18l-11.79-28a4.06,4.06,0,0,0-4-2.87H26.66A3.93,3.93,0,0,0,22.83,112L10.57,141.5a3.35,3.35,0,0,1-2.87,1.91c-1.76,0-3.19-.95-3.19-2.87a3.77,3.77,0,0,1,.32-1.43L46.42,39.69c1.43-3.51,3.66-5.42,6.69-5.42s5.25,1.91,6.69,5.42L100,136.08a5.1,5.1,0,0,1,.48,2.23A4.94,4.94,0,0,1,95.33,143.41Zm-22-43.5L52.47,50.36a2,2,0,0,0-1.75-1.43A1.93,1.93,0,0,0,48.8,50.2L27.93,99.75a2.92,2.92,0,0,0-.32,1.44c0,1.43.8,2.07,2.39,2.07H71.27c1.43,0,2.39-.64,2.39-1.91A4.67,4.67,0,0,0,73.34,99.91Z"/><path d="M123.05,138.15a5.17,5.17,0,0,1-5.1,5.26,5.31,5.31,0,0,1-5.26-5.26v-98A5.17,5.17,0,0,1,118,35.07a5,5,0,0,1,5.1,5.09Z"/><path d="M246.37,143.41a5.46,5.46,0,0,1-4-1.75l-36.8-43.18C204.3,96.89,203,95,203,92.74c0-3.18,2.39-4.78,5.25-4.78C223.74,88,236,82.39,236,65.18c0-22.31-19.28-23.1-36.17-23.1h-4.3c-3.51,0-5.42,2.07-5.42,5.57v90.5a5.17,5.17,0,0,1-5.1,5.26,5.31,5.31,0,0,1-5.26-5.26V41.76a5.88,5.88,0,0,1,5.9-5.9h22c20.07,0,40,4.78,40,29.16,0,19.12-14.66,28.2-32,29l34.74,41a5.15,5.15,0,0,1,1.27,3.34A5.27,5.27,0,0,1,246.37,143.41Z"/><path d="M321.73,142.61H287.15c-14.66,0-20.55-5.41-20.55-20.71V56.73c0-15,5.89-20.87,20.55-20.87h34.58a3,3,0,0,1,3,3,3.06,3.06,0,0,1-3,3.19H288.9c-7.8,0-11.95,4.3-11.95,12.1V81.27c0,1.75.8,2.55,2.39,2.55h42.39a2.93,2.93,0,0,1,3,3,3.05,3.05,0,0,1-3,3.18H279.34A2.12,2.12,0,0,0,277,92.42v32.19c0,7.65,4.15,11.79,12.11,11.79h32.67a3,3,0,0,1,3,3A3.05,3.05,0,0,1,321.73,142.61Z"/><path d="M427.52,39.37l-40.95,98.78c-1.44,3.51-3.51,5.26-6.53,5.26s-4.94-1.75-6.38-5.26L332.87,42.24a4.43,4.43,0,0,1-.48-2.08,5.21,5.21,0,0,1,5.26-5.25,5.27,5.27,0,0,1,4.94,3.18l38.08,89.39a2.07,2.07,0,0,0,1.91,1.43,2,2,0,0,0,1.76-1.43l37.28-90.66a3.14,3.14,0,0,1,2.87-1.91,2.89,2.89,0,0,1,3.19,3A4.43,4.43,0,0,1,427.52,39.37Z"/></svg>